<svg width="40" height="80" viewBox="0 0 40 80" xmlns="http://www.w3.org/2000/svg"><title>Icon</title><g fill="none" fill-rule="evenodd"><path d="M12.31 62.8l-2.416 2.405L8 63.32l4.724-4.707 3.2 4.776 2.68-5.338 4.864-3.632 3.074 3.826L29.178 53l2.396 1.192-4.51 8.975L23 58.104l-2.282 1.702-4.463 8.885-3.944-5.89z" fill="#FFF"/><path d="M12.31 22.8l-2.416 2.405L8 23.32l4.724-4.707 3.2 4.776 2.68-5.338 4.864-3.632 3.074 3.826L29.178 13l2.396 1.192-4.51 8.975L23 18.104l-2.282 1.702-4.463 8.885-3.944-5.89z" fill="#009CFF"/></g></svg>