<svg width="40" height="80" viewBox="0 0 40 80" xmlns="http://www.w3.org/2000/svg"><title>Icon</title><g fill="none" fill-rule="evenodd"><path d="M15.714 50h8.572c.946 0 1.714.747 1.714 1.667v16.666c0 .92-.768 1.667-1.714 1.667h-8.572C14.768 70 14 69.253 14 68.333V51.667c0-.92.768-1.667 1.714-1.667zM15 53h10v14H15V53z" fill="#FFF"/><path d="M15.714 10h8.572c.946 0 1.714.747 1.714 1.667v16.666c0 .92-.768 1.667-1.714 1.667h-8.572C14.768 30 14 29.253 14 28.333V11.667c0-.92.768-1.667 1.714-1.667zM15 13h10v14H15V13z" fill="#009CFF"/></g></svg>