<svg width="40" height="80" viewBox="0 0 40 80" xmlns="http://www.w3.org/2000/svg"><title>Icon</title><g fill="none" fill-rule="evenodd"><path d="M29.58 62.266c-.43.32-.978.63-1.788 1.09l-3.58 2.024c-1.19.675-1.848 1.047-2.768 1.316-.55.146-1.114.217-1.697.217-.582 0-1.147-.07-1.678-.212-.94-.274-1.597-.646-2.788-1.32l-3.58-2.024c-.815-.462-1.363-.773-1.79-1.09-.028.03-.057.057-.084.087-.444.538-.444 1.16 0 1.698.437.476 1.03.812 2.217 1.484l3.58 2.024c1.187.67 1.78 1.006 2.62 1.254.953.25 2.052.25 3.004 0 .84-.248 1.433-.583 2.62-1.254l3.58-2.024c1.187-.672 1.78-1.008 2.217-1.483.444-.538.444-1.16 0-1.697-.027-.03-.058-.058-.086-.087" opacity=".5" fill="#FFF"/><path d="M29.58 59.483c-.43.32-.978.63-1.788 1.09l-3.58 2.024c-1.19.675-1.848 1.047-2.768 1.316-.55.145-1.114.217-1.697.217-.582 0-1.147-.072-1.678-.212-.94-.276-1.597-.647-2.788-1.32l-3.58-2.025c-.815-.462-1.363-.773-1.79-1.09-.028.03-.057.057-.084.087-.444.538-.444 1.16 0 1.698.437.475 1.03.81 2.217 1.482l3.58 2.024c1.187.672 1.78 1.007 2.62 1.255.953.25 2.052.25 3.004-.002.84-.247 1.433-.582 2.62-1.254l3.58-2.024c1.187-.67 1.78-1.007 2.217-1.482.444-.54.444-1.16 0-1.698-.027-.03-.058-.06-.086-.087" opacity=".75" fill="#FFF"/><path d="M15.625 53.28c1.187-.672 1.78-1.008 2.62-1.255.953-.25 2.052-.25 3.004 0 .84.247 1.433.583 2.62 1.254l3.58 2.024c1.187.67 1.78 1.007 2.217 1.483.444.538.444 1.16 0 1.697-.437.476-1.03.812-2.217 1.483l-3.58 2.024c-1.187.673-1.78 1.008-2.62 1.255-.953.25-2.052.25-3.004 0-.84-.247-1.434-.582-2.62-1.254l-3.58-2.023c-1.188-.67-1.78-1.007-2.218-1.483-.444-.538-.444-1.16 0-1.697.437-.476 1.03-.812 2.217-1.483l3.58-2.025" fill="#FFF"/><path d="M29.58 22.266c-.43.32-.978.63-1.788 1.09l-3.58 2.024c-1.19.675-1.848 1.047-2.768 1.316-.55.146-1.114.217-1.697.217-.582 0-1.147-.07-1.678-.212-.94-.274-1.597-.646-2.788-1.32l-3.58-2.024c-.815-.462-1.363-.773-1.79-1.09-.028.03-.057.057-.084.087-.444.538-.444 1.16 0 1.698.437.476 1.03.812 2.217 1.484l3.58 2.024c1.187.67 1.78 1.006 2.62 1.254.953.25 2.052.25 3.004 0 .84-.248 1.433-.583 2.62-1.254l3.58-2.024c1.187-.672 1.78-1.008 2.217-1.483.444-.538.444-1.16 0-1.697-.027-.03-.058-.058-.086-.087" opacity=".5" fill="#009CFF"/><path d="M29.58 19.483c-.43.32-.978.63-1.788 1.09l-3.58 2.024c-1.19.675-1.848 1.047-2.768 1.316-.55.145-1.114.217-1.697.217-.582 0-1.147-.072-1.678-.212-.94-.276-1.597-.647-2.788-1.32l-3.58-2.025c-.815-.462-1.363-.773-1.79-1.09-.028.03-.057.057-.084.087-.444.538-.444 1.16 0 1.698.437.475 1.03.81 2.217 1.482l3.58 2.024c1.187.672 1.78 1.007 2.62 1.255.953.25 2.052.25 3.004-.002.84-.247 1.433-.582 2.62-1.254l3.58-2.024c1.187-.67 1.78-1.007 2.217-1.482.444-.54.444-1.16 0-1.698-.027-.03-.058-.06-.086-.087" opacity=".75" fill="#009CFF"/><path d="M15.625 13.28c1.187-.672 1.78-1.008 2.62-1.255.953-.25 2.052-.25 3.004 0 .84.247 1.433.583 2.62 1.254l3.58 2.024c1.187.67 1.78 1.007 2.217 1.483.444.538.444 1.16 0 1.697-.437.476-1.03.812-2.217 1.483l-3.58 2.024c-1.187.673-1.78 1.008-2.62 1.255-.953.25-2.052.25-3.004 0-.84-.247-1.434-.582-2.62-1.254l-3.58-2.023c-1.188-.67-1.78-1.007-2.218-1.483-.444-.538-.444-1.16 0-1.697.437-.476 1.03-.812 2.217-1.483l3.58-2.025" fill="#009CFF"/></g></svg>