<svg width="40" height="80" viewBox="0 0 40 80" xmlns="http://www.w3.org/2000/svg"><title>Icon</title><g fill="none" fill-rule="evenodd"><path d="M11.912 63.57c0-.835.93-1.465 1.037-1.535.264-.168.577-.282.88-.393.153-.057.306-.11.42-.168.155-.073.3-.127.44-.18.35-.127.678-.24 1.006-.355l.19-.068c.085-.03.173-.056.26-.084-.136-.08-.253-.178-.365-.29-.052-.052-.11-.108-.147-.172-.05-.084-.026-.16-.163-.14-.14.016-.1-.242-.1-.242s.167-.094.22-.25c.048-.15.132-.726.132-.726s.092.017.17-.037c.084-.048.2-.196.292-1.12.016-.19-.108-.1-.108-.11-.054-.25.138-.417.068-1.32-.013-.17-.046-.34-.15-.487-.094-.13-.175-.276-.276-.404-.07-.09-.162-.177-.263-.234-.47-.27-1.024-.412-1.58-.398-.118.003-.224.03-.337.062-.255.082-.23.082-.353.148-.077.042-.136.08-.19.145-.046.056-.084.11-.168.114-.385.014-.448.362-.566.635-.09.192-.107.336-.09.447.014.12.037.183.067.425.022.178.02.358.042.537.005.06.037.12.05.18.02.115-.054.048-.093.128-.03.078 0 .488.054.665.056.184.062.438.148.52.085.09.1.037.192.066.085.038 0-.01.07.165.06.173.037.328.1.534.083.297.23.183.27.343.03.164-.03.164-.03.164s-.147-.017-.225.03c-.098.055-.16.23-.21.32-.056.103-.103.24-.22.296-.284.136-.61.217-.91.32-.275.096-.55.19-.824.292-.086.032-.176.063-.26.103-.237.12-.652.23-.86.36-.2.132-.438.387-.438.55 0 .168-.092.944-.092.944 0 .31 1.174.574 2.87.704.023-.233.04-.422.042-.485zm18.996-1.16c-.055-.133-.03-.325-.268-.473-.24-.143-.255-.132-.824-.386-.32-.14-.654-.253-.985-.368-.303-.106-.61-.21-.91-.32-.203-.075-.346-.218-.492-.363-.053-.054-.112-.11-.148-.174-.05-.084-.026-.16-.163-.14-.14.016-.1-.242-.1-.242s.167-.094.22-.25c.048-.15.132-.726.132-.726s.09.017.168-.037c.085-.048.2-.196.293-1.12.017-.19-.107-.1-.107-.11-.054-.25.138-.417.068-1.32-.012-.17-.045-.34-.15-.487-.093-.13-.174-.276-.275-.404-.07-.09-.162-.177-.263-.234-.472-.27-1.024-.412-1.58-.398-.118.003-.224.03-.337.062-.255.082-.23.082-.353.148-.077.042-.136.08-.19.145-.046.056-.084.11-.168.114-.385.014-.45.362-.566.635-.092.192-.108.336-.092.447.015.12.038.183.068.425.022.178.02.358.04.537.008.06.04.12.053.18.02.115-.054.048-.093.128-.03.078 0 .488.054.665.054.184.06.438.147.52.085.09.1.037.192.066.085.038 0-.01.07.165.06.173.037.328.1.534.083.297.23.183.27.343.03.164-.032.164-.032.164s-.145-.017-.223.03c-.098.055-.16.23-.21.32-.056.103-.103.24-.22.296-.008.005-.018.007-.027.01l.275.098.417.145c.438.153.877.307 1.3.494l.536.234c.35.15.446.194.724.36.594.37.713.874.764 1.09.037.103.094.248.145.84 1.676-.13 2.835-.395 2.835-.702 0 0-.04-.812-.092-.943zm-3.66 2.482C27.247 65.504 24 66 20 66c-4.003 0-7.247-.496-7.247-1.108 0 0 .128-1.085.128-1.32 0-.23.334-.586.616-.77.29-.183.87-.338 1.204-.504.117-.056.242-.1.365-.145.382-.14.768-.274 1.153-.408.418-.146.877-.258 1.274-.448.164-.078.23-.27.31-.414.07-.126.155-.372.292-.45.11-.065.313-.042.313-.042s.085 0 .043-.228c-.055-.225-.26-.064-.376-.482-.09-.288-.055-.505-.142-.746-.097-.248.022-.18-.097-.23-.128-.04-.15.035-.27-.093-.118-.114-.128-.47-.204-.728-.076-.247-.118-.82-.076-.93.054-.112.16-.02.13-.18-.017-.084-.06-.165-.07-.25-.03-.252-.03-.503-.06-.753-.042-.34-.073-.43-.094-.598-.023-.154 0-.356.13-.625.163-.383.25-.87.79-.89.118-.003.172-.08.236-.16.075-.09.16-.144.266-.202.17-.093.136-.093.495-.206.158-.048.306-.085.47-.09.78-.018 1.552.18 2.213.558.142.08.272.204.37.327.14.18.252.382.384.565.146.206.192.442.21.682.1 1.264-.17 1.5-.094 1.85 0 .01.172-.115.15.153-.13 1.293-.29 1.5-.41 1.568-.107.075-.236.052-.236.052s-.12.81-.184 1.015c-.075.22-.31.352-.31.352s-.055.36.14.338c.192-.028.16.078.23.198.05.088.133.167.206.24.205.204.404.403.69.508.422.155.85.3 1.274.448.464.162.932.32 1.38.518.795.355.816.34 1.153.54.333.207.3.476.376.66.072.184.127 1.32.127 1.32z" fill="#FFF"/><path d="M11.912 23.57c0-.835.93-1.465 1.037-1.535.264-.168.577-.282.88-.393.153-.057.306-.11.42-.168.155-.073.3-.127.44-.18.35-.127.678-.24 1.006-.355l.19-.068c.085-.03.173-.056.26-.084-.136-.08-.253-.178-.365-.29-.052-.052-.11-.108-.147-.172-.05-.084-.026-.16-.163-.14-.14.016-.1-.242-.1-.242s.167-.094.22-.25c.048-.15.132-.726.132-.726s.092.017.17-.037c.084-.048.2-.196.292-1.12.016-.19-.108-.1-.108-.11-.054-.25.138-.417.068-1.32-.013-.17-.046-.34-.15-.487-.094-.13-.175-.276-.276-.404-.07-.09-.162-.177-.263-.234-.47-.27-1.024-.412-1.58-.398-.118.003-.224.03-.337.062-.255.082-.23.082-.353.148-.077.042-.136.08-.19.145-.046.056-.084.11-.168.114-.385.014-.448.362-.566.635-.09.192-.107.336-.09.447.014.12.037.183.067.425.022.178.02.358.042.537.005.06.037.12.05.18.02.115-.054.048-.093.128-.03.078 0 .488.054.665.056.184.062.438.148.52.085.09.1.037.192.066.085.038 0-.01.07.165.06.173.037.328.1.534.083.297.23.183.27.343.03.164-.03.164-.03.164s-.147-.017-.225.03c-.098.055-.16.23-.21.32-.056.103-.103.24-.22.296-.284.136-.61.217-.91.32-.275.096-.55.19-.824.292-.086.032-.176.063-.26.103-.237.12-.652.23-.86.36-.2.132-.438.387-.438.55 0 .168-.092.944-.092.944 0 .31 1.174.574 2.87.704.023-.233.04-.422.042-.485zm18.996-1.16c-.055-.133-.03-.325-.268-.473-.24-.143-.255-.132-.824-.386-.32-.14-.654-.253-.985-.368-.303-.106-.61-.21-.91-.32-.203-.075-.346-.218-.492-.363-.053-.054-.112-.11-.148-.174-.05-.084-.026-.16-.163-.14-.14.016-.1-.242-.1-.242s.167-.094.22-.25c.048-.15.132-.726.132-.726s.09.017.168-.037c.085-.048.2-.196.293-1.12.017-.19-.107-.1-.107-.11-.054-.25.138-.417.068-1.32-.012-.17-.045-.34-.15-.487-.093-.13-.174-.276-.275-.404-.07-.09-.162-.177-.263-.234-.472-.27-1.024-.412-1.58-.398-.118.003-.224.03-.337.062-.255.082-.23.082-.353.148-.077.042-.136.08-.19.145-.046.056-.084.11-.168.114-.385.014-.45.362-.566.635-.092.192-.108.336-.092.447.015.12.038.183.068.425.022.178.02.358.04.537.008.06.04.12.053.18.02.115-.054.048-.093.128-.03.078 0 .488.054.665.054.184.06.438.147.52.085.09.1.037.192.066.085.038 0-.01.07.165.06.173.037.328.1.534.083.297.23.183.27.343.03.164-.032.164-.032.164s-.145-.017-.223.03c-.098.055-.16.23-.21.32-.056.103-.103.24-.22.296-.008.005-.018.007-.027.01l.275.098.417.145c.438.153.877.307 1.3.494l.536.234c.35.15.446.194.724.36.594.37.713.874.764 1.09.037.103.094.248.145.84 1.676-.13 2.835-.395 2.835-.702 0 0-.04-.812-.092-.943zm-3.66 2.482C27.247 25.504 24 26 20 26c-4.003 0-7.247-.496-7.247-1.108 0 0 .128-1.085.128-1.32 0-.23.334-.586.616-.77.29-.183.87-.338 1.204-.504.117-.056.242-.1.365-.145.382-.14.768-.274 1.153-.408.418-.146.877-.258 1.274-.448.164-.078.23-.27.31-.414.07-.126.155-.372.292-.45.11-.065.313-.042.313-.042s.085 0 .043-.228c-.055-.225-.26-.064-.376-.482-.09-.288-.055-.505-.142-.746-.097-.248.022-.18-.097-.23-.128-.04-.15.035-.27-.093-.118-.114-.128-.47-.204-.728-.076-.247-.118-.82-.076-.93.054-.112.16-.02.13-.18-.017-.084-.06-.165-.07-.25-.03-.252-.03-.503-.06-.753-.042-.34-.073-.43-.094-.598-.023-.154 0-.356.13-.625.163-.383.25-.87.79-.89.118-.003.172-.08.236-.16.075-.09.16-.144.266-.202.17-.093.136-.093.495-.206.158-.048.306-.085.47-.09.78-.018 1.552.18 2.213.558.142.08.272.204.37.327.14.18.252.382.384.565.146.206.192.442.21.682.1 1.264-.17 1.5-.094 1.85 0 .01.172-.115.15.153-.13 1.293-.29 1.5-.41 1.568-.107.075-.236.052-.236.052s-.12.81-.184 1.015c-.075.22-.31.352-.31.352s-.055.36.14.338c.192-.028.16.078.23.198.05.088.133.167.206.24.205.204.404.403.69.508.422.155.85.3 1.274.448.464.162.932.32 1.38.518.795.355.816.34 1.153.54.333.207.3.476.376.66.072.184.127 1.32.127 1.32z" fill="#009CFF"/></g></svg>